<?xml version="1.0" standalone="no"?><!DOCTYPE svg PUBLIC "-//W3C//DTD SVG 1.1//EN" "http://www.w3.org/Graphics/SVG/1.1/DTD/svg11.dtd"><svg t="1511169405902" class="icon" style="" viewBox="0 0 1024 1024" version="1.1" xmlns="http://www.w3.org/2000/svg" p-id="1749" xmlns:xlink="http://www.w3.org/1999/xlink" width="200" height="200"><defs><style type="text/css"></style></defs><path d="M433.04 330.752c93.552 0 172.816 13.648 237.776 40.928s119.552 65.28 163.696 114.016c44.208 48.752 79.6 107.2 106.24 175.408 26.672 68.224 49.04 143.248 67.232 225.072 0 10.4-4.528 15.616-13.664 15.616-6.496 0-12.32-2.592-17.552-7.76-37.664-46.784-78.576-86.128-122.784-117.92-44.176-31.84-89.968-57.84-137.392-77.984-47.472-20.128-95.184-34.4-143.248-42.88-48.096-8.432-94.88-12.672-140.336-12.672l0 208.56L16 486.656 433.072 122.224l0 208.528L433.04 330.752z" p-id="1750" fill="#d81e06"></path></svg>